<?xml version="1.0" encoding="UTF-8"?><svg xmlns="http://www.w3.org/2000/svg" viewBox="0 0 98.95 33.22"><defs><style>.d{fill:#ffdc00;stroke:#ffdc00;stroke-miterlimit:10;stroke-width:.35px;}</style></defs><g id="a"/><g id="b"><g id="c"><g><g><path d="M11.9,12.98c-.15-.36-.36-.68-.61-.97-.25-.27-.54-.51-.86-.7-.34-.17-.66-.31-1-.39v-.07c.63-.24,1.15-.61,1.53-1.12,.39-.49,.59-1.14,.59-1.9,0-.83-.19-1.51-.56-2.02-.36-.51-.83-.88-1.37-1.15-.56-.27-1.17-.44-1.83-.53-.66-.08-1.27-.14-1.87-.14H0v14.41H6.53c.71,0,1.41-.08,2.07-.22,.68-.14,1.27-.37,1.8-.71s.93-.76,1.25-1.31c.32-.53,.47-1.19,.47-1.98,0-.44-.07-.85-.22-1.22ZM4.53,7.78h1.19c.39,0,.7,.07,.92,.2,.24,.14,.36,.34,.36,.61,0,.32-.12,.56-.32,.73-.22,.15-.51,.22-.85,.22h-1.29v-1.76Zm2.36,6.58c-.24,.17-.54,.25-.92,.25h-1.44v-1.95h1.24c.15,0,.31,.02,.47,.03,.17,.03,.32,.08,.47,.15,.15,.08,.27,.19,.37,.31s.15,.27,.15,.46c0,.34-.12,.58-.36,.75Z"/><path d="M23.62,12.58c.8-.36,1.42-.88,1.87-1.56,.42-.66,.64-1.44,.64-2.32s-.17-1.66-.51-2.27c-.34-.59-.78-1.09-1.34-1.44-.54-.36-1.17-.61-1.87-.75-.7-.15-1.41-.22-2.1-.22h-6.21v14.41h4.7v-5.16h.14l2.76,5.16h5.56l-3.65-5.85Zm-2.41-3.05c-.1,.15-.25,.27-.42,.36-.17,.08-.34,.15-.54,.17-.19,.03-.37,.05-.53,.05h-.95v-2.32h1.14c.15,0,.32,.02,.49,.03,.17,.02,.34,.07,.49,.14,.14,.08,.25,.19,.36,.34s.14,.36,.14,.61-.05,.46-.17,.63Z"/><path d="M37.1,4.01V12.24c0,.7-.17,1.22-.51,1.61-.32,.39-.8,.58-1.41,.58s-1.09-.19-1.41-.58c-.34-.39-.51-.92-.51-1.61V4.01h-4.83V12.76c0,.85,.14,1.64,.41,2.39,.27,.75,.68,1.37,1.24,1.92s1.25,.98,2.09,1.29c.83,.31,1.81,.47,2.93,.47s2.12-.17,2.97-.47,1.56-.75,2.12-1.29c.58-.54,1-1.17,1.29-1.92,.31-.75,.44-1.54,.44-2.39V4.01h-4.82Z"/><path d="M43.21,4.01v4.09h3.54v10.33h4.83V8.1h2.17l1.37-3.04v-1.05h-11.92Z"/></g><g><path d="M57.27,9.12h-4.43l-1.25,2.76-2.97,6.55-1.29,2.85-.88,2.24h5.12l.71-2.12h4.6l.75,2.12h5.27l-5.63-14.4Zm-3.82,8.58l1.17-3.56,1.17,3.56h-2.34Z"/><path d="M68.8,19.34V9.12h-4.88v14.4h9.67v-4.17h-4.78Z"/><path d="M79.96,19.34V9.12h-4.88v14.4h9.67v-4.17h-4.78Z"/><path d="M93.25,9.12l-2.17,4.22-2.29-4.22h-5.83l5.43,8.5v5.9h4.85v-5.9l5.71-8.5h-5.7Z"/></g><polygon class="d" points="57.3 .39 53.83 8.06 52.69 10.58 52.31 11.42 50.89 14.56 48.81 19.14 46.89 23.36 44.7 28.21 44.39 28.06 47.36 21.51 48.43 19.14 50.89 13.71 51.93 11.42 52.31 10.58 53.83 7.23 56.99 .24 57.3 .39"/><g><path d="M48.24,27.48h.75v2.37h3.17v-2.37h.75v5.6h-.75v-2.59h-3.17v2.59h-.75v-5.6Z"/><path d="M62.84,30.27c0,.43-.08,.82-.23,1.18-.15,.36-.36,.67-.63,.93-.27,.26-.59,.46-.96,.61-.37,.15-.77,.22-1.2,.22s-.83-.07-1.19-.22c-.36-.15-.68-.35-.95-.61-.27-.26-.48-.57-.63-.93-.15-.36-.23-.75-.23-1.18s.08-.82,.23-1.18c.15-.36,.36-.67,.63-.92,.27-.26,.58-.46,.95-.6s.76-.21,1.19-.21,.83,.07,1.2,.21c.37,.14,.69,.34,.96,.6,.27,.26,.48,.56,.63,.92,.15,.36,.23,.75,.23,1.18Zm-.82,0c0-.31-.05-.6-.16-.87-.1-.27-.25-.51-.44-.72-.19-.21-.42-.37-.69-.49-.27-.12-.58-.18-.91-.18s-.64,.06-.91,.18c-.27,.12-.5,.28-.69,.49-.19,.21-.33,.45-.43,.72-.1,.27-.15,.56-.15,.87s.05,.6,.16,.88c.1,.28,.25,.52,.43,.73,.19,.21,.41,.37,.68,.49,.27,.12,.57,.18,.91,.18s.64-.06,.91-.18c.27-.12,.5-.28,.69-.49,.19-.21,.34-.45,.44-.73,.1-.28,.16-.57,.16-.88Z"/><path d="M70.64,32.01h.02v-4.53h.75v5.6h-.94l-2.94-4.62h-.01v4.62h-.75v-5.6h.98l2.9,4.53Z"/><path d="M76.46,32.41h2.99v.68h-3.75v-5.6h3.63v.65h-2.88v1.72h2.7v.64h-2.7v1.91Z"/><path d="M86.11,28.52c-.12-.16-.28-.29-.47-.39-.19-.09-.41-.14-.65-.14-.13,0-.26,.02-.4,.05-.14,.04-.26,.09-.36,.16-.11,.07-.19,.17-.26,.28-.07,.11-.1,.25-.1,.41s.03,.29,.09,.4c.06,.1,.14,.19,.25,.26,.11,.07,.23,.14,.37,.19,.14,.05,.29,.1,.46,.15,.19,.06,.39,.13,.59,.2s.38,.17,.54,.29,.29,.27,.4,.45c.1,.18,.16,.41,.16,.69s-.06,.54-.17,.75-.26,.39-.45,.53c-.18,.14-.39,.24-.63,.31s-.47,.1-.72,.1c-.36,0-.7-.07-1.04-.21s-.61-.34-.82-.61l.6-.5c.12,.2,.29,.37,.52,.49,.23,.12,.47,.18,.75,.18,.14,0,.27-.02,.41-.06s.27-.1,.38-.18c.11-.08,.21-.18,.28-.31,.07-.12,.11-.27,.11-.44s-.04-.32-.11-.44c-.08-.12-.18-.21-.3-.29-.12-.08-.27-.14-.43-.2s-.34-.11-.52-.16c-.19-.06-.37-.12-.55-.2-.18-.07-.34-.17-.48-.29-.14-.12-.25-.27-.34-.44-.09-.18-.13-.39-.13-.64,0-.27,.06-.51,.17-.71s.26-.36,.45-.49,.39-.22,.62-.28c.23-.06,.46-.09,.7-.09,.34,0,.65,.06,.94,.18s.52,.28,.69,.48l-.54,.51Z"/><path d="M92.23,33.09h-.75v-4.95h-1.83v-.65h4.44v.65h-1.86v4.95Z"/></g></g></g></g></svg>